<svg xmlns="http://www.w3.org/2000/svg" viewBox="0 0 128 128" role="img" aria-labelledby="title desc">
  <title id="title">Gismeteo Precipitation</title>
  <desc id="desc">Weather cloud, raindrops, precipitation bars and spreadsheet grid.</desc>
  <defs>
    <linearGradient id="background" x1="14" y1="10" x2="116" y2="118" gradientUnits="userSpaceOnUse">
      <stop offset="0" stop-color="#0b1220"/>
      <stop offset=".55" stop-color="#0f2f4a"/>
      <stop offset="1" stop-color="#14532d"/>
    </linearGradient>
    <linearGradient id="cloud" x1="26" y1="25" x2="93" y2="76" gradientUnits="userSpaceOnUse">
      <stop offset="0" stop-color="#ffffff"/>
      <stop offset="1" stop-color="#cbd5e1"/>
    </linearGradient>
    <linearGradient id="rain" x1="29" y1="70" x2="72" y2="107" gradientUnits="userSpaceOnUse">
      <stop offset="0" stop-color="#38bdf8"/>
      <stop offset="1" stop-color="#2563eb"/>
    </linearGradient>
    <linearGradient id="bar" x1="76" y1="78" x2="105" y2="109" gradientUnits="userSpaceOnUse">
      <stop offset="0" stop-color="#86efac"/>
      <stop offset="1" stop-color="#16a34a"/>
    </linearGradient>
  </defs>

  <rect x="0" y="0" width="128" height="128" rx="26" fill="url(#background)"/>
  <circle cx="98" cy="28" r="13" fill="#facc15"/>
  <path d="M98 8v8M98 40v8M78 28h8M110 28h8M84 14l6 6M106 36l6 6M112 14l-6 6M90 36l-6 6" stroke="#fde68a" stroke-width="4" stroke-linecap="round"/>

  <path d="M34 72c-12 0-21-9-21-20 0-10 8-18 19-19 6-13 18-21 33-21 17 0 31 11 34 27 10 2 17 11 17 21 0 12-10 22-23 22H34Z" fill="url(#cloud)"/>
  <path d="M35 85c0 7-5 13-11 13s-11-6-11-13c0-5 7-15 11-20 4 5 11 15 11 20Zm31 6c0 8-6 15-13 15s-13-7-13-15c0-6 8-18 13-24 5 6 13 18 13 24Zm29-6c0 7-5 13-11 13s-11-6-11-13c0-5 7-15 11-20 4 5 11 15 11 20Z" fill="url(#rain)"/>

  <rect x="73" y="74" width="42" height="38" rx="8" fill="#ecfdf5" stroke="#bbf7d0" stroke-width="3"/>
  <path d="M81 84h26M81 94h26M81 104h26M90 78v30M99 78v30" stroke="#86efac" stroke-width="2.5" stroke-linecap="round"/>
  <rect x="82" y="98" width="6" height="8" rx="2" fill="url(#bar)"/>
  <rect x="92" y="89" width="6" height="17" rx="2" fill="url(#bar)"/>
  <rect x="102" y="82" width="6" height="24" rx="2" fill="url(#bar)"/>
</svg>
